<svg id="Layer_1" data-name="Layer 1" xmlns="http://www.w3.org/2000/svg" viewBox="0 0 600 600"><title>lennartobror_grey_visitkort</title><path d="M313.19,397.74,310.44,401c-2.23,2.76-4.35,5.63-7.22,7.64-1.69,1.28-5.41,2.87-6.57.11-.85-1.8-.43-4.14-.11-6a60.91,60.91,0,0,1,2.34-8.69l1.69-4.67.85-2.23c.11-.21.64-2,.85-2h10a1.22,1.22,0,0,0,1.17-1.7c-.43-1-2-.64-2.87-.64h-7.32c1.06-2.76,2.12-5.41,3.29-8.06l1.59-4a4.49,4.49,0,0,0,.64-2,1.16,1.16,0,0,0-2.23-.32c-1.69,4.14-3.39,8.28-5.41,12.2L300,382.78h-5.62c-.64,0-1.38-.1-1.7.64a1.18,1.18,0,0,0,1.17,1.7h4.77a107.51,107.51,0,0,1-7.85,11.77l-.25.3a1.18,1.18,0,0,0-.28.23L283,405.59a30.8,30.8,0,0,1-5.83,5.3c-.53.32-1.49.85-2.12.64-1.07-.32-1-1.91-.85-2.76.63-3,2.54-5.62,4-8.17.95-1.59,2-3.07,2.86-4.77a15.07,15.07,0,0,0,1.7-4.24,3,3,0,0,0-1.8-3.4c-1.28-.53-2.66-.21-4-.32-.63-.1-.63-.21-.53-.74a5.24,5.24,0,0,1,.32-1.17,9.47,9.47,0,0,0,1-2.12,1.19,1.19,0,0,0-2.12-.85l-1.6,1.81-3.39,4.13c-2,2.34-4,4.67-6.15,6.9a12.69,12.69,0,0,0-1.76,1.88c-2.53,3-5.05,6-7.79,8.73a29.32,29.32,0,0,1-3.29,3.07,7.07,7.07,0,0,1-3,1.49,2.3,2.3,0,0,1-2.54-1,6.88,6.88,0,0,1-.22-4.13,37.58,37.58,0,0,1,1.38-4.89,19.67,19.67,0,0,1,1.17-2.54c.53-.85,1.06-1.7,1.49-2.55,1.48-2.75,2.86-5.4,4.13-8.27.43-1,1.91-3.29.21-3.82a11.77,11.77,0,0,0-1.9-.42,19.4,19.4,0,0,0-10.61,2,29,29,0,0,0-7.22,5.1,31,31,0,0,0-5.67,6.76,1.22,1.22,0,0,0-.27.24c-1.59,2-3.5,4.77-5.2,6.68a30,30,0,0,1-5.83,5.2c-.95.53-4.35,2.22-4.56.1a8,8,0,0,1,.64-3.18c.42-1.49,1.06-2.87,1.59-4.24,1.38-3.29,3-6.37,4-9.76.63-2.12,1.59-5.52-.53-7.21s-5.41-.64-7.43.42a27.43,27.43,0,0,0-7.32,6.15q-1.91,2.24-3.82,4.77a30.48,30.48,0,0,0,1.49-5.08,9.81,9.81,0,0,0,0-3.93,3.61,3.61,0,0,0-4.77-2.44,14,14,0,0,0-5,3.29,50,50,0,0,0-4.77,4.88l-3.19,4,0,.08a1,1,0,0,0-.27.24c-1.59,2-3.5,4.77-5.19,6.68a30.32,30.32,0,0,1-5.84,5.2c-.95.53-4.35,2.22-4.56.1a8,8,0,0,1,.64-3.18c.42-1.49,1.06-2.87,1.59-4.24,1.38-3.29,3-6.37,4-9.76.64-2.12,1.59-5.52-.53-7.21s-5.41-.64-7.43.42a27.59,27.59,0,0,0-7.32,6.15q-1.9,2.24-3.81,4.77a31.41,31.41,0,0,0,1.48-5.08,9.81,9.81,0,0,0,0-3.93,3.61,3.61,0,0,0-4.77-2.44,14,14,0,0,0-5,3.29,50,50,0,0,0-4.77,4.88l-3.18,4-.13.2a1.26,1.26,0,0,0-.4.33l-1.91,2.33c-1.17,1.27-2.34,2.65-3.61,3.82a34.82,34.82,0,0,1-6.79,5.2,11.29,11.29,0,0,1-5.84,1.38,4.24,4.24,0,0,1-2.65-1.06,6,6,0,0,1-1.16-3.5,17.61,17.61,0,0,1,.85-5.31c.1,0,.1-.42.21-.42s.42-.11.63-.11l1.28-.32a22.71,22.71,0,0,0,2.54-.74,35.35,35.35,0,0,0,7.64-3.39c2.76-1.91,6.36-5.2,5.31-9-.85-2.55-3.72-3.18-6.16-2.76a12.45,12.45,0,0,0-5.94,3.4,28.78,28.78,0,0,0-7.23,10.89l-2.32,2.68a48.54,48.54,0,0,1-6.79,7.22,12.65,12.65,0,0,1-7.85,3.18,20.85,20.85,0,0,1-9.65-2.86c-2.65-1.49-5.2-3.08-7.74-4.67,3.92-5.84,6.57-12.41,9.23-19l4-10.61a15.35,15.35,0,0,1,1.06-2.44l.42-1.27,1.49-.32a40.53,40.53,0,0,0,5.19-1.59c5.41-2,11.67-5.3,13.58-11.14.64-2.12.53-4.77-1.27-6.26s-4.56-1.38-6.79-.63c-5.62,1.91-8.91,7.32-11.35,12.41a48.61,48.61,0,0,0-2.23,4.77l-.32.64c-.21,0-.42.1-.63.1l-1.38.21-2.86.32a41.59,41.59,0,0,1-10.29-.21,23.47,23.47,0,0,1-7.54-2.23,6.3,6.3,0,0,1-2.86-2.65c-.21-.63,0-1.38-.42-1.91a1.23,1.23,0,0,0-1.81,0c-.63.75-.21,2.12.11,2.87a7.47,7.47,0,0,0,2.65,3.07,20.33,20.33,0,0,0,7.64,3,46.66,46.66,0,0,0,16.33,0c-2.75,6.9-5.19,14-8.16,20.8a73.2,73.2,0,0,1-4.67,9l-.64,1.06-.32.43c-.1.21-.1.32-.31.21l-2.44-1.38a28.71,28.71,0,0,0-4.88-2.12c-5.2-1.81-12.63-1.7-15.49,3.92a8.68,8.68,0,0,0,.63,8.49,8.25,8.25,0,0,0,7,3.39A17,17,0,0,0,73.24,412a24.7,24.7,0,0,0,3.61-3l1.7-1.8.74-1,.42-.53c.21-.21.43.11.64.22,5.62,3.5,11.56,7.95,18.56,7.63a14.76,14.76,0,0,0,7.75-2.65,35.66,35.66,0,0,0,6.15-5.83l1.35-1.62a11.08,11.08,0,0,0,.56,5.86,6.29,6.29,0,0,0,5.09,3.61c4.67.53,9.12-2.44,12.52-5.31A63,63,0,0,0,137,403l2.54-2.86c.16-.23.35-.48.53-.75a3.17,3.17,0,0,0,.64-.63l1.59-2.12a67,67,0,0,1,6.58-7,27.24,27.24,0,0,1,2.75-2.13,2.59,2.59,0,0,1,2.13-.31,2.07,2.07,0,0,1,.63,2,10.76,10.76,0,0,1-.31,2.65,45.78,45.78,0,0,1-2.34,6.68c-1.59,3.72-3.39,7.33-5.2,10.93l-.85,1.91a1.06,1.06,0,0,0,.54,1.49,1.51,1.51,0,0,0,1.8-.64,24.72,24.72,0,0,0,2.12-3.61,116.8,116.8,0,0,1,7.32-11.35c2.65-3.6,5.73-7.42,9.76-9.54a6.84,6.84,0,0,1,2.44-1c.74-.21,2-.42,2.65.22s.32,1.59.21,2.33a17.57,17.57,0,0,1-1.16,3.82c-1.17,3.07-2.55,6.15-3.82,9.23A22.85,22.85,0,0,0,166,407a6.63,6.63,0,0,0-.21,3.5c.64,2.65,3.61,2.76,5.84,2,2.75-1,5.09-3.18,7.11-5.2a70.34,70.34,0,0,0,5.09-6,14.28,14.28,0,0,0,1.35-1.86,3.86,3.86,0,0,0,.56-.58l1.59-2.12a68,68,0,0,1,6.57-7,27.37,27.37,0,0,1,2.76-2.13,2.57,2.57,0,0,1,2.12-.31,2.05,2.05,0,0,1,.64,2,10.75,10.75,0,0,1-.32,2.65,44.6,44.6,0,0,1-2.33,6.68c-1.59,3.72-3.39,7.33-5.2,10.93l-.85,1.91a1.06,1.06,0,0,0,.53,1.49,1.52,1.52,0,0,0,1.81-.64,25.65,25.65,0,0,0,2.12-3.61,116.8,116.8,0,0,1,7.32-11.35c2.65-3.6,5.72-7.42,9.76-9.54a6.84,6.84,0,0,1,2.44-1c.74-.21,2-.42,2.65.22s.32,1.59.21,2.33a17.61,17.61,0,0,1-1.17,3.82c-1.16,3.07-2.54,6.15-3.82,9.23a23.46,23.46,0,0,0-1.59,4.56,6.53,6.53,0,0,0-.21,3.5c.64,2.65,3.61,2.76,5.84,2,2.75-1,5.09-3.18,7.1-5.2.67-.66,1.32-1.4,2-2.15a11.24,11.24,0,0,0-.15,1.41,6.83,6.83,0,0,0,2.65,5.84c2.33,1.59,5.62.95,8.06-.22a24,24,0,0,0,7.32-6.57c-.42,2.76-.53,6.15,2.44,7.42,2.65,1.28,5.41-.21,7.43-1.91a57.92,57.92,0,0,0,7.53-7.74c1-1.17,2-2.34,3.07-3.5.13-.18.31-.37.47-.59l.28-.26,2-2.12c2.44-2.76,5-5.51,7.32-8.49.53,1.49,1.91,1.81,3.29,1.91.53,0,3-.32,3.08.43.1,1.27-.85,2.86-1.38,3.92-1,1.7-1.91,3.18-2.87,4.77-1.8,2.87-3.92,5.94-4.45,9.34-.32,2.44.95,5.52,3.92,5.2,1.91-.22,3.61-1.59,5.09-2.87a63.89,63.89,0,0,0,6.48-6.68l3.71-4.14.68-.81a6.14,6.14,0,0,0,1-1.1c1.48-2,3-4,4.34-6a73.45,73.45,0,0,0-2.65,9.44A18,18,0,0,0,294,408a4.91,4.91,0,0,0,3.5,4.35c2.76.85,5.63-.54,7.75-2.23,3-2.34,5.2-5.41,7.53-8.28.74-.74,1.38-1.59,2-2.33.32-.42.64-.85.43-1.38A1.23,1.23,0,0,0,313.19,397.74Zm-189.77-7.85c1.59-1.7,3.71-3.5,6-3.72,1.6-.21,3.4.22,3.19,2.13a6.21,6.21,0,0,1-1.81,3.08c-3.07,3.28-8,5-12.3,6A29.42,29.42,0,0,1,123.42,389.89ZM101.78,358.7a16.11,16.11,0,0,1,5.41-5.3c1.69-.85,5.3-2.23,6.57,0,1.06,1.69,0,4-1,5.52a17.91,17.91,0,0,1-6.37,5.19,39.38,39.38,0,0,1-9.33,3.5A63.81,63.81,0,0,1,101.78,358.7ZM70,410.89c-2.65,1.17-6,2-8.91.74a5.73,5.73,0,0,1-3-7,7.12,7.12,0,0,1,5.84-4.45c3.28-.53,6.79.53,9.76,1.91a38.79,38.79,0,0,1,4.13,2.22C75.68,407,73.13,409.62,70,410.89Zm169.52-4.24a13.85,13.85,0,0,1-5.94,3.92,6.35,6.35,0,0,1-3.71.11,3.21,3.21,0,0,1-1.7-2.33c-.53-2.23.21-4.78,1.06-6.79a26.82,26.82,0,0,1,6.15-8.49,28,28,0,0,1,7.22-5.41,16.91,16.91,0,0,1,9.44-1.8c-1.17,1.91-2.23,3.82-3.29,5.83a42.74,42.74,0,0,0-1.8,3.93l-1,2a8,8,0,0,1-1.17,2.12A43,43,0,0,1,239.47,406.65Z" fill="#4d4d4f"/><path d="M368.57,387.55a1.32,1.32,0,0,0-1.38,0c-.11.22-.32.43-.32.64s-.11.11-.11.21l-.31.53-1.17,1.38-1.8,1.91-5.1,4.56c-1.91,1.7-3.82,3.29-5.83,4.88l-2.23-7c-.85-2.54-1.48-5.2-2.12-7.74-.42-1.38-.64-2.65-1-4,0-.11-.1-.32-.1-.43v-.32s-.11,0,0-.1a.1.1,0,0,0,.1-.11l.85-.64,1.7-1.16c2.12-1.59,4.25-3.29,6.26-5a53.39,53.39,0,0,0,5.09-4.77,16.38,16.38,0,0,0,3.18-4.77,10.61,10.61,0,0,0,.85-3.19,15.87,15.87,0,0,0-.32-3.28,11.68,11.68,0,0,0-3.39-5.31,8.68,8.68,0,0,0-5.41-2.12,9.49,9.49,0,0,0-5.62,1.7,13.58,13.58,0,0,0-2.65,2.22,14.75,14.75,0,0,0-1.91,2.55,17,17,0,0,0-2,6.05,32.57,32.57,0,0,0-.42,7.21,52.46,52.46,0,0,0,.74,8.17l.21,1.06v.21c.11.11.11.21,0,.21l-.42.32a14.67,14.67,0,0,1-1.59,1.17c-1.07.85-2.13,1.7-3.19,2.44-2.12,1.59-4.24,3.29-6.15,5a48.46,48.46,0,0,0-5.3,5,27.39,27.39,0,0,0-3.82,5.41,14.72,14.72,0,0,0-2,5.83,7.65,7.65,0,0,0,1.59,5.41,8.54,8.54,0,0,0,4.14,2.34,14.88,14.88,0,0,0,5.73.32,28.48,28.48,0,0,0,6.58-1.6,35.34,35.34,0,0,0,6.25-3.39c1.81-1.17,3.5-2.44,5.31-3.71.74,2,1.48,4,2.33,6l.64,1.49a2.1,2.1,0,0,0,.42.63,1.31,1.31,0,0,0,1.38.11,1.37,1.37,0,0,0,.53-1.38.4.4,0,0,1-.1-.32l-.64-1.37L353.82,405l-.32-.95c0-.11,0-.11.11-.11a.1.1,0,0,1,.1-.11l.43-.32a16.25,16.25,0,0,1,1.48-1.16l2.87-2.44c1.8-1.49,3.61-3.08,5.3-4.67a44.42,44.42,0,0,0,3.82-4,10.6,10.6,0,0,0,1-1.27,3.51,3.51,0,0,0,.53-1.06A1.32,1.32,0,0,0,368.57,387.55Zm-22.39-23.33a14.24,14.24,0,0,1,2.34-5.73l.42-.64c1.49-1.59,3.29-3.18,5.41-3.6a6.12,6.12,0,0,1,2.76,0,6.41,6.41,0,0,1,2.65,1.37,7.77,7.77,0,0,1,3,5.42,7,7,0,0,1-.42,3.28,14.26,14.26,0,0,1-1.17,2.23,28.06,28.06,0,0,1-4.14,4.56c-1.8,1.7-3.71,3.29-5.72,4.88l-4.67,3.5a68.86,68.86,0,0,1-.85-8.06A32.57,32.57,0,0,1,346.18,364.22Zm4.25,39.14c-.11,0-.11.1-.21.1l-2.13,1.6c-1.48,1.06-3,2.12-4.66,3.18a28,28,0,0,1-7,3.08,17.65,17.65,0,0,1-6.15.63,7.5,7.5,0,0,1-4.24-1.38,4.53,4.53,0,0,1-1.59-2.12,7.6,7.6,0,0,1,0-3.08,12.79,12.79,0,0,1,1.17-3.18,17.42,17.42,0,0,1,1.8-3,40.26,40.26,0,0,1,4.45-5.09c1.91-1.8,3.93-3.39,5.94-5,2.13-1.81,4.35-3.4,6.58-5.1a1,1,0,0,0,.53-.42c.64,2.76,1.27,5.41,2,8.06.63,2.44,1.38,4.88,2.22,7.32.32,1.17.75,2.23,1.17,3.4l.21.74C350.64,403.25,350.43,403.25,350.43,403.36Z" fill="#4d4d4f"/><path d="M427.76,398a16.7,16.7,0,0,0-1.27-10.61,11.33,11.33,0,0,0-8.28-5.73,27.45,27.45,0,0,0,11.25-13.68c1.59-4.67,2-11.14-2.44-14.32a5.75,5.75,0,0,0-2.23-1.17c-4.78-1.69-9.55.74-13.26,3.82-4.78,3.93-8.59,9.23-12,14.43,1.17-2.87,2.44-5.84,3.5-8.81.85-2.22,1.91-4.66.64-6.89s-4.14-2.76-6.47-2.76a18.79,18.79,0,0,0-8.59,2.55,10.45,10.45,0,0,0-3.19,2.54c-.63.85-1.8,2.55-.95,3.5a1.17,1.17,0,0,0,1.59.22c.53-.43.53-1.07.85-1.6a7.92,7.92,0,0,1,2.76-2.54,15.12,15.12,0,0,1,9.54-2.12,3.09,3.09,0,0,1,2.55,1.8,5.38,5.38,0,0,1-.53,3.39c-1.49,4.14-3.29,8.28-5,12.41-2.44,5.95-5,11.89-7.42,17.93-2.66,6.15-5.2,12.31-7.75,18.46l-1.37,3.29a3,3,0,0,0-.22.95,1.22,1.22,0,0,0,2.34.22l2.86-6.9,4-9.76c1.7-4,3.61-8.06,5.62-12a129.86,129.86,0,0,1,10.08-17c3.08-4.14,6.58-8.48,10.93-11.24,3.07-2,7.63-3.29,10.71-.53,1.91,1.8,2.33,4.66,2,7.21a17.75,17.75,0,0,1-2.12,6.79,27.92,27.92,0,0,1-12.52,11.67,7.19,7.19,0,0,1-2,.53l-2.33.64a20.24,20.24,0,0,0-2.23.84,5.43,5.43,0,0,0-2.23,1.06,1.14,1.14,0,0,0-.21,1.38,1.36,1.36,0,0,0,1.49.53,43.41,43.41,0,0,0,5.19-1.37l2.34-1a6.15,6.15,0,0,1,2.44-.32,13.68,13.68,0,0,1,4,.64,8.74,8.74,0,0,1,5,5.09c1.81,4.88.53,10.71-2.33,14.85-3.08,4.67-8.59,7.11-14,7.64-4.35.53-9.34.1-13.15-2.12a6.5,6.5,0,0,1-1.7-1.28,1.16,1.16,0,0,1-.32-1.59c.42-.53.95-.95.53-1.7a1.16,1.16,0,0,0-1.59-.53,3.22,3.22,0,0,0-1.38,1.91,3.83,3.83,0,0,0,1.17,3.72,11.65,11.65,0,0,0,4.45,2.54,25.88,25.88,0,0,0,6.79,1.49A26.43,26.43,0,0,0,419,411.1,19.28,19.28,0,0,0,427.76,398Z" fill="#4d4d4f"/><path d="M525.78,397.42l-7.32,8.17a30.85,30.85,0,0,1-5.84,5.3c-.53.32-1.48.85-2.12.64-1.06-.32-.95-1.91-.85-2.76.64-3,2.55-5.62,4-8.17,1-1.59,2-3.07,2.87-4.77a15.07,15.07,0,0,0,1.7-4.24,3,3,0,0,0-1.81-3.4c-1.27-.53-2.65-.21-4-.32-.64-.1-.64-.21-.53-.74a4.76,4.76,0,0,1,.32-1.17,9,9,0,0,0,.95-2.12A1.19,1.19,0,0,0,511,383l-1.59,1.81-3.39,4.13c-2,2.34-4,4.67-6.16,6.9a8.8,8.8,0,0,0-2,2.32h0l-2.23,2.34a19.84,19.84,0,0,1-3.61,3.07,7.13,7.13,0,0,1-6.47,1,29.6,29.6,0,0,0,5.1-9.13c1.05-3,1.48-6.89-.11-9.76-1.27-2.43-4.14-2.75-6.36-1.16s-3.29,4.24-4,6.57c-1.37,4.46-2,10.72,1.7,14.11-2.12,2.34-5.09,4.78-8.38,5.2-3.07.43-4.67-2.23-4.77-5a16,16,0,0,1,1.38-6.68,27.21,27.21,0,0,1,4.13-7.21,22.3,22.3,0,0,1,3.19-3.18,10.72,10.72,0,0,1,1.69-1.38c.53-.43,1.28-.75,1.38-1.59a1.27,1.27,0,0,0-1.17-1.28c-.63,0-1.37.75-1.9,1.07a45.05,45.05,0,0,0-3.4,3.07,30.54,30.54,0,0,0-5.91,9,1.22,1.22,0,0,0-.35.27l-7.32,8.17a30.49,30.49,0,0,1-5.83,5.3c-.53.32-1.49.85-2.12.64-1.07-.32-1-1.91-.85-2.76.63-3,2.54-5.62,4-8.17.95-1.59,2-3.07,2.86-4.77a15.07,15.07,0,0,0,1.7-4.24,3,3,0,0,0-1.8-3.4c-1.28-.53-2.66-.21-4-.32-.64-.1-.64-.21-.54-.74a5.24,5.24,0,0,1,.32-1.17,9.47,9.47,0,0,0,1-2.12A1.2,1.2,0,0,0,453,383l-1.59,1.81L448,388.93c-2,2.34-4,4.67-6.15,6.9a20.1,20.1,0,0,0-1.49,1.48l-.42.43c-3.61,4.24-7.21,8.59-10.93,12.83a1.45,1.45,0,0,0-.42,1.27,1.21,1.21,0,0,0,2.12.54l1.91-2.34,7.11-8.38,1.69-2a3.13,3.13,0,0,0,.74-.64l2-2.12c2.44-2.76,5-5.51,7.32-8.49.53,1.49,1.91,1.81,3.29,1.91.53,0,3-.32,3.08.43.1,1.27-.85,2.86-1.38,3.92-1,1.7-1.91,3.18-2.87,4.77-1.8,2.87-3.92,5.94-4.45,9.34-.32,2.44.95,5.52,3.92,5.2,1.91-.22,3.61-1.59,5.09-2.87a62.8,62.8,0,0,0,6.47-6.68l1.88-2.09a11.68,11.68,0,0,0,.78,7.18c1.48,2.76,4.56,3.72,7.53,3.08a17.31,17.31,0,0,0,8.17-5.2l1-.95a4,4,0,0,0,1,.42,11.65,11.65,0,0,0,1.91.42,8.71,8.71,0,0,0,3.71-.31,16.07,16.07,0,0,0,5.41-3.4l2.86-2.86a8.62,8.62,0,0,0,1.22-1.54c.05-.05.11-.1.16-.16l2-2.12c2.44-2.76,5-5.51,7.32-8.49.53,1.49,1.91,1.81,3.28,1.91.53,0,3-.32,3.08.43.11,1.27-.85,2.86-1.38,3.92-.95,1.7-1.91,3.18-2.86,4.77-1.8,2.87-3.93,5.94-4.46,9.34-.32,2.44,1,5.52,3.93,5.2,1.91-.22,3.61-1.59,5.09-2.87a62.8,62.8,0,0,0,6.47-6.68l3.71-4.14,1.06-1.27A1.16,1.16,0,1,0,525.78,397.42Zm-42.33,5.94c-2.12-2.12-2.23-5.62-1.8-8.38S483,389,485,386.92c.64-.64,1.81-1.38,2.76-1,1.06.64,1.27,2.12,1.38,3.19.32,3.6-1.06,7-2.86,10A38,38,0,0,1,483.45,403.36Z" fill="#4d4d4f"/><path d="M156.75,451a1.43,1.43,0,0,0-.43-1.11,1.36,1.36,0,0,0-1-.33h-.07a1.4,1.4,0,0,0-.88.33A1.46,1.46,0,0,0,154,451a2.68,2.68,0,1,1-5.35,0,1.43,1.43,0,0,0-.42-1.11,1.37,1.37,0,0,0-1-.33h-.08a1.38,1.38,0,0,0-.87.33,1.43,1.43,0,0,0-.42,1.11,2.68,2.68,0,1,1-5.36,0,1.43,1.43,0,0,0-.42-1.11,1.4,1.4,0,0,0-1-.33h-.07a1.36,1.36,0,0,0-.87.33,1.43,1.43,0,0,0-.42,1.11,2.68,2.68,0,1,1-5.36,0,1.43,1.43,0,0,0-.42-1.11,1.36,1.36,0,0,0-1-.33H131a1.4,1.4,0,0,0-.87.33,1.43,1.43,0,0,0-.42,1.11,2.68,2.68,0,1,1-5.36,0,1.43,1.43,0,0,0-.42-1.11,1.39,1.39,0,0,0-1-.33h-.08a1.38,1.38,0,0,0-.87.33,1.43,1.43,0,0,0-.42,1.11,2.68,2.68,0,1,1-5.35,0,1.43,1.43,0,0,0-.43-1.11,1.36,1.36,0,0,0-1-.33h-.07a1.36,1.36,0,0,0-.87.33,1.43,1.43,0,0,0-.43,1.11,2.68,2.68,0,1,1-5.36,0,1.43,1.43,0,0,0-.42-1.11,1.37,1.37,0,0,0-1-.33h-.08a1.38,1.38,0,0,0-.87.33,1.43,1.43,0,0,0-.42,1.11,2.68,2.68,0,1,1-5.35,0,1.43,1.43,0,0,0-.42-1.11,1.4,1.4,0,0,0-1-.33h-.07a1.36,1.36,0,0,0-.87.33,1.43,1.43,0,0,0-.42,1.11,2.69,2.69,0,1,1-5.37,0,1.43,1.43,0,0,0-.42-1.11,1.36,1.36,0,0,0-1-.33h-.08a1.4,1.4,0,0,0-.87.33,1.43,1.43,0,0,0-.42,1.11,2.68,2.68,0,1,1-5.35,0,1.43,1.43,0,0,0-.42-1.11,1.39,1.39,0,0,0-1-.33h-.08a1.38,1.38,0,0,0-.87.33A1.43,1.43,0,0,0,81,451a2.68,2.68,0,1,1-5.36,0,1.43,1.43,0,0,0-.43-1.11,1.36,1.36,0,0,0-1-.33H74.2a1.36,1.36,0,0,0-.87.33A1.43,1.43,0,0,0,72.9,451a2.68,2.68,0,1,1-5.35,0,1.43,1.43,0,0,0-.42-1.11,1.37,1.37,0,0,0-1-.33h-.08a1.4,1.4,0,0,0-.87.33A1.43,1.43,0,0,0,64.8,451c0,2.5-2.6,2.7-2.71,2.71v.31s3-.23,3-3a1.14,1.14,0,0,1,.31-.88,1.11,1.11,0,0,1,.7-.25h.11a1,1,0,0,1,.7.25,1.14,1.14,0,0,1,.32.88c0,2.62,2.61,3,3,3h0c.35,0,3-.39,3-3a1.14,1.14,0,0,1,.32-.88,1.07,1.07,0,0,1,.7-.25h.1a1,1,0,0,1,.7.25,1.14,1.14,0,0,1,.32.88c0,2.66,2.69,3,3,3h0c.28,0,3-.35,3-3a1.14,1.14,0,0,1,.32-.88,1.11,1.11,0,0,1,.7-.25h.11a1,1,0,0,1,.69.25,1.11,1.11,0,0,1,.32.88c0,2.62,2.61,3,3,3h0c.35,0,3-.39,3-3a1.14,1.14,0,0,1,.32-.88,1.07,1.07,0,0,1,.7-.25h.1a1,1,0,0,1,.7.25,1.14,1.14,0,0,1,.32.88c0,2.66,2.69,3,3,3h0c.28,0,3-.35,3-3a1.14,1.14,0,0,1,.32-.88,1.07,1.07,0,0,1,.7-.25h.1a1,1,0,0,1,.7.25,1.14,1.14,0,0,1,.32.88c0,2.62,2.61,3,3,3h0c.36,0,3-.39,3-3a1.14,1.14,0,0,1,.31-.88,1.11,1.11,0,0,1,.7-.25h.11a1,1,0,0,1,.7.25,1.14,1.14,0,0,1,.32.88c0,2.66,2.69,3,3,3h0c.28,0,3-.35,3-3a1.14,1.14,0,0,1,.32-.88,1.07,1.07,0,0,1,.7-.25h.1a1,1,0,0,1,.7.25,1.14,1.14,0,0,1,.32.88c0,2.62,2.61,3,3,3h0c.35,0,3-.39,3-3a1.14,1.14,0,0,1,.32-.88,1.09,1.09,0,0,1,.7-.25H123a1,1,0,0,1,.69.25,1.11,1.11,0,0,1,.32.88c0,2.66,2.7,3,3,3h0c.28,0,3-.35,3-3a1.14,1.14,0,0,1,.32-.88,1.07,1.07,0,0,1,.7-.25h.1a1,1,0,0,1,.7.25,1.14,1.14,0,0,1,.32.88c0,2.62,2.61,3,3,3h0c.35,0,3-.39,3-3a1.14,1.14,0,0,1,.32-.88,1.07,1.07,0,0,1,.7-.25h.1a1,1,0,0,1,.7.25,1.14,1.14,0,0,1,.32.88c0,2.66,2.69,3,3,3h0c.28,0,3-.35,3-3a1.14,1.14,0,0,1,.31-.88,1.11,1.11,0,0,1,.7-.25h.11a1,1,0,0,1,.69.25,1.11,1.11,0,0,1,.32.88c0,2.62,2.62,3,3,3h0c.35,0,3-.39,3-3a1.14,1.14,0,0,1,.32-.88,1.07,1.07,0,0,1,.7-.25h.1a1,1,0,0,1,.7.25,1.14,1.14,0,0,1,.32.88c0,2.79,3,3,3,3l0-.31C159.35,453.73,156.75,453.54,156.75,451Z" fill="#4d4d4f"/><path d="M509.08,451a1.43,1.43,0,0,0-.42-1.11,1.4,1.4,0,0,0-1-.33h-.07a1.36,1.36,0,0,0-.87.33,1.43,1.43,0,0,0-.42,1.11,2.68,2.68,0,1,1-5.36,0,1.43,1.43,0,0,0-.42-1.11,1.36,1.36,0,0,0-1-.33h-.08a1.4,1.4,0,0,0-.87.33,1.43,1.43,0,0,0-.42,1.11,2.68,2.68,0,1,1-5.36,0,1.43,1.43,0,0,0-.42-1.11,1.37,1.37,0,0,0-1-.33h-.08a1.38,1.38,0,0,0-.87.33,1.43,1.43,0,0,0-.42,1.11,2.68,2.68,0,1,1-5.35,0,1.43,1.43,0,0,0-.43-1.11,1.36,1.36,0,0,0-1-.33h-.07a1.36,1.36,0,0,0-.87.33A1.43,1.43,0,0,0,482,451a2.68,2.68,0,1,1-5.36,0,1.43,1.43,0,0,0-.42-1.11,1.37,1.37,0,0,0-1-.33h-.08a1.4,1.4,0,0,0-.87.33,1.43,1.43,0,0,0-.42,1.11,2.68,2.68,0,1,1-5.35,0,1.43,1.43,0,0,0-.42-1.11,1.4,1.4,0,0,0-1-.33h-.07a1.36,1.36,0,0,0-.87.33,1.43,1.43,0,0,0-.42,1.11,2.69,2.69,0,1,1-5.37,0,1.43,1.43,0,0,0-.42-1.11,1.36,1.36,0,0,0-1-.33H459a1.4,1.4,0,0,0-.88.33,1.46,1.46,0,0,0-.42,1.11,2.68,2.68,0,1,1-5.35,0,1.43,1.43,0,0,0-.42-1.11,1.37,1.37,0,0,0-1-.33h-.08a1.38,1.38,0,0,0-.87.33,1.43,1.43,0,0,0-.42,1.11,2.68,2.68,0,1,1-5.36,0,1.43,1.43,0,0,0-.42-1.11,1.4,1.4,0,0,0-1-.33h-.07a1.36,1.36,0,0,0-.87.33,1.43,1.43,0,0,0-.42,1.11,2.68,2.68,0,1,1-5.36,0,1.43,1.43,0,0,0-.42-1.11,1.36,1.36,0,0,0-1-.33h-.08a1.4,1.4,0,0,0-.87.33,1.43,1.43,0,0,0-.42,1.11,2.68,2.68,0,1,1-5.36,0,1.43,1.43,0,0,0-.42-1.11,1.4,1.4,0,0,0-1-.33h-.07a1.38,1.38,0,0,0-.87.33,1.43,1.43,0,0,0-.42,1.11,2.68,2.68,0,1,1-5.35,0,1.43,1.43,0,0,0-.43-1.11,1.36,1.36,0,0,0-1-.33h-.07a1.4,1.4,0,0,0-.88.33,1.46,1.46,0,0,0-.42,1.11c0,2.5-2.6,2.7-2.71,2.71l0,.31s3-.23,3-3a1.14,1.14,0,0,1,.32-.88,1.07,1.07,0,0,1,.7-.25h.1a1,1,0,0,1,.7.25,1.14,1.14,0,0,1,.32.88c0,2.62,2.61,3,3,3h0c.35,0,3-.39,3-3a1.14,1.14,0,0,1,.32-.88,1.09,1.09,0,0,1,.7-.25h.11a1,1,0,0,1,.69.25,1.11,1.11,0,0,1,.32.88c0,2.66,2.69,3,3,3h0c.29,0,3-.35,3-3a1.11,1.11,0,0,1,.32-.88,1.06,1.06,0,0,1,.69-.25h.11a1,1,0,0,1,.7.25,1.14,1.14,0,0,1,.32.88c0,2.62,2.61,3,3,3h0c.35,0,3-.39,3-3a1.14,1.14,0,0,1,.32-.88,1.07,1.07,0,0,1,.7-.25h.1a1,1,0,0,1,.7.25,1.14,1.14,0,0,1,.32.88c0,2.66,2.7,3,3,3h0c.28,0,3-.35,3-3a1.14,1.14,0,0,1,.31-.88,1.11,1.11,0,0,1,.7-.25H451a1,1,0,0,1,.69.25,1.11,1.11,0,0,1,.32.88c0,2.62,2.62,3,3,3h0c.35,0,3-.39,3-3a1.14,1.14,0,0,1,.32-.88,1.07,1.07,0,0,1,.7-.25h.1a1,1,0,0,1,.7.25,1.14,1.14,0,0,1,.32.88c0,2.66,2.69,3,3,3h0c.28,0,3-.35,3-3a1.14,1.14,0,0,1,.32-.88,1.09,1.09,0,0,1,.7-.25h.1a1,1,0,0,1,.7.25,1.14,1.14,0,0,1,.32.88c0,2.62,2.61,3,3,3h0c.36,0,3-.39,3-3a1.14,1.14,0,0,1,.31-.88,1.11,1.11,0,0,1,.7-.25h.11a1,1,0,0,1,.7.25,1.14,1.14,0,0,1,.32.88c0,2.66,2.69,3,3,3h0c.27,0,3-.35,3-3a1.14,1.14,0,0,1,.32-.88,1.07,1.07,0,0,1,.7-.25h.1a1,1,0,0,1,.7.25,1.14,1.14,0,0,1,.32.88c0,2.62,2.61,3,3,3h0c.35,0,3-.39,3-3a1.14,1.14,0,0,1,.31-.88,1.11,1.11,0,0,1,.7-.25h.11a1,1,0,0,1,.69.25,1.11,1.11,0,0,1,.32.88c0,2.66,2.69,3,3,3h0c.28,0,3-.35,3-3a1.14,1.14,0,0,1,.32-.88,1.07,1.07,0,0,1,.7-.25h.1a1,1,0,0,1,.7.25,1.14,1.14,0,0,1,.32.88c0,2.62,2.61,3,3,3h0c.35,0,3-.39,3-3a1.14,1.14,0,0,1,.32-.88,1.07,1.07,0,0,1,.7-.25h.1a1,1,0,0,1,.7.25,1.14,1.14,0,0,1,.32.88c0,2.79,3,3,3,3l0-.31C511.68,453.73,509.08,453.54,509.08,451Z" fill="#4d4d4f"/><path d="M175.15,450.87c.71-.16,1.35-.37,1.35-1.71v-1.62c0-1.86-1.25-1.86-2-1.86h-2V457h2.24c1.81,0,2.13-1.09,2.13-2.11V453C176.88,451.62,176.56,451.08,175.15,450.87Zm-1.87-4.5h1c1.06,0,1.44.24,1.44,1.25V449c0,.66-.05,1.59-1.66,1.59h-.77Zm2.82,8.18c0,1-.07,1.76-1.48,1.76H173.3v-5.06h.81c1.83,0,2,.92,2,1.7Z" fill="#4d4d4f"/><rect x="185.21" y="445.7" width="0.82" height="11.3" fill="#4d4d4f"/><path d="M199.06,449.43v-1.76c0-1.84-1.38-2-2.24-2h-2.18V457h.78v-5.51h1.24l2.06,5.51h.83l-2.08-5.57A1.8,1.8,0,0,0,199.06,449.43Zm-3.64,1.39v-4.45h1.48c.76,0,1.32.21,1.32,1.51v1.74c0,.85-.49,1.2-1.37,1.2Z" fill="#4d4d4f"/><path d="M209.47,452.53h1.67v1.81c0,1.48-.92,2.13-1.6,2.13a1.34,1.34,0,0,1-1.3-.94,4.94,4.94,0,0,1-.16-1.67v-5.34c0-.9,0-1.3.32-1.73a1.39,1.39,0,0,1,1.22-.55c1.47,0,1.47,1.16,1.47,1.92v1.17h.77v-1.57a2.06,2.06,0,0,0-.84-1.84,2.6,2.6,0,0,0-1.36-.35c-2.35,0-2.35,1.86-2.35,2.58v5.94a3.61,3.61,0,0,0,.43,2.21,2,2,0,0,0,1.7.86,2.07,2.07,0,0,0,1.87-1.06v.9h.6v-5.15h-2.44Z" fill="#4d4d4f"/><polygon points="220.45 457 224.43 457 224.43 456.3 221.22 456.3 221.22 451.44 223.87 451.44 223.87 450.76 221.23 450.76 221.23 446.4 224.45 446.4 224.45 445.7 220.45 445.7 220.45 457" fill="#4d4d4f"/><path d="M236.93,449.43v-1.76c0-1.84-1.38-2-2.24-2h-2.18V457h.78v-5.51h1.24l2.06,5.51h.83l-2.08-5.57A1.8,1.8,0,0,0,236.93,449.43Zm-3.64,1.39v-4.45h1.48c.77,0,1.33.21,1.33,1.51v1.74c0,.85-.5,1.2-1.38,1.2Z" fill="#4d4d4f"/><path d="M257.68,455.06c0,1.35-.91,1.4-1,1.4a1.06,1.06,0,0,1-1-.63,2.15,2.15,0,0,1-.13-.93v-1.45h-.77v1.61c0,1.84,1.23,2.1,1.78,2.1a2,2,0,0,0,2-2.22V445.7h-.78Z" fill="#4d4d4f"/><path d="M268.21,445.64,266.14,457H267l.6-3.44h2.37l.57,3.44h.83l-2-11.36Zm-.52,7.18.93-5.33c0-.17.05-.35.08-.51s0-.3.05-.46c.07.41.13.91.16,1.07l.88,5.23Z" fill="#4d4d4f"/><path d="M283.52,449.43v-1.76c0-1.84-1.38-2-2.24-2H279.1V457h.79v-5.51h1.23l2.06,5.51H284l-2.08-5.57A1.79,1.79,0,0,0,283.52,449.43Zm-3.63,1.39v-4.45h1.47c.77,0,1.33.21,1.33,1.51v1.74c0,.85-.5,1.2-1.38,1.2Z" fill="#4d4d4f"/><polygon points="292.61 445.7 291.82 445.7 291.82 457 295.55 457 295.55 456.3 292.61 456.3 292.61 445.7" fill="#4d4d4f"/><path d="M303.71,447.91c0-1.11.34-1.7,1.36-1.7,1.33,0,1.33,1.06,1.33,1.75v1h.77v-.81c0-1.07,0-2.61-2.11-2.61s-2.13,1.55-2.13,2.5c0,1.58.7,2.29,2,3.55s1.65,1.76,1.65,3-.34,1.84-1.46,1.84a1.63,1.63,0,0,1-1.31-.53c-.34-.43-.34-.89-.34-1.74v-.9h-.78v1.59a2.13,2.13,0,0,0,2.37,2.29c2.16,0,2.3-1.62,2.3-2.69,0-1.54-.53-2.08-1.7-3.28C303.94,449.48,303.71,449,303.71,447.91Z" fill="#4d4d4f"/><path d="M317.58,452.53h1.67v1.81c0,1.48-.92,2.13-1.6,2.13a1.34,1.34,0,0,1-1.3-.94,4.94,4.94,0,0,1-.16-1.67v-5.34c0-.9,0-1.3.32-1.73a1.39,1.39,0,0,1,1.22-.55c1.47,0,1.47,1.16,1.47,1.92v1.17H320v-1.57a2.06,2.06,0,0,0-.84-1.84,2.6,2.6,0,0,0-1.36-.35c-2.35,0-2.35,1.86-2.35,2.58v5.94a3.61,3.61,0,0,0,.43,2.21,2,2,0,0,0,1.7.86,2.07,2.07,0,0,0,1.87-1.06v.9h.6v-5.15h-2.44Z" fill="#4d4d4f"/><path d="M329.73,445.64,327.66,457h.83l.6-3.44h2.37L332,457h.83l-2.05-11.36Zm-.52,7.18.93-5.33c0-.17.05-.35.08-.51s0-.3,0-.46c.06.41.13.91.16,1.07l.88,5.23Z" fill="#4d4d4f"/><polygon points="339.14 446.4 341.11 446.4 341.11 457 341.89 457 341.89 446.4 343.91 446.4 343.91 445.68 339.14 445.68 339.14 446.4" fill="#4d4d4f"/><path d="M352.23,445.64,350.16,457H351l.59-3.44H354l.57,3.44h.84l-2.05-11.36Zm-.51,7.18.93-5.33c0-.17,0-.35.08-.51s0-.3,0-.46c.07.41.13.91.16,1.07l.88,5.23Z" fill="#4d4d4f"/><path d="M366.87,453.94c0,1.16.05,2.13.08,2.72l-2.74-11h-1.15V457h.74l0-8c0-1.13,0-1.47-.07-2.76l2.67,10.8h1.21V445.7h-.77Z" fill="#4d4d4f"/><path d="M388.71,450.68a1.49,1.49,0,0,0,1.17-1.7v-1.31c0-.77-.05-2.08-2.07-2.08s-2,1.49-2,1.89V449a1.5,1.5,0,0,0,1.08,1.64,1.83,1.83,0,0,0-1.24,2v1.94a2.43,2.43,0,0,0,.62,1.94,2.46,2.46,0,0,0,1.6.54A2,2,0,0,0,390,455v-2.06C390,451.43,389.57,451,388.71,450.68ZM386.53,449v-1.52a1.1,1.1,0,0,1,1.25-1.26c1.36,0,1.36.91,1.36,1.52v1.12a1.26,1.26,0,0,1-1.33,1.43A1.19,1.19,0,0,1,386.53,449Zm2.76,5.7a1.44,1.44,0,0,1-1.44,1.68c-1.48,0-1.48-1.31-1.48-1.93v-1.78a1.43,1.43,0,0,1,1.49-1.66c1.43,0,1.43,1.39,1.43,1.72Z" fill="#4d4d4f"/><path d="M400.15,450.93a2,2,0,0,0,1.62-2.06v-1.09a1.82,1.82,0,0,0-1.93-2.08,1.79,1.79,0,0,0-1.93,2.1V449h.7v-1.2c0-.45,0-1.46,1.19-1.46s1.25.9,1.25,1.62v.94c0,.95-.76,1.65-2.12,1.65v.74c.71.05,2,.13,2.31,1.18a8.56,8.56,0,0,1,.13,2.18c0,1.3-.77,1.78-1.51,1.78a1.41,1.41,0,0,1-1.18-.53c-.31-.42-.32-.87-.37-2.37h-.71c0,1.52.07,2.1.42,2.66a2,2,0,0,0,1.78.91,2.23,2.23,0,0,0,2.27-2.55v-1.2C402.07,451.37,400.93,451.11,400.15,450.93Z" fill="#4d4d4f"/><path d="M291.63,137a92.82,92.82,0,1,0,92.82,92.82A92.93,92.93,0,0,0,291.63,137Zm0,180.88a88.07,88.07,0,1,1,88.06-88.06A88.17,88.17,0,0,1,291.63,317.86Z" fill="#4d4d4f"/><path d="M319.49,272.51c-2.69,2.18-6.44,2.87-9.2,3.05l-.18,0c-1,0-1.92,0-2.87,0a41,41,0,0,1-6.75-.46c-3.73-.6-7.41-2.13-11.95-5-1.66-1-3.31-2.11-5-3.18l-.28.43.2-.48c-3.55-2.3-7.21-4.67-11-6.75A73.42,73.42,0,0,0,262,255.24v-44.6h8.37a11.92,11.92,0,1,0-11.92-11.92v8.35h-7.88a4.05,4.05,0,0,1-2.17-.64l-.34.38.27-.48a1.74,1.74,0,0,0-1.8-1.74h0a1.74,1.74,0,0,0-1.25.55,1.78,1.78,0,0,0-.49,1.26,3.6,3.6,0,0,0,1.27,2.7,7.6,7.6,0,0,0,4.22,1.53h.12a20.57,20.57,0,0,0,3.81,0h4.25v43.52a29.8,29.8,0,0,0-4.71-.84,16.89,16.89,0,0,0-5,.24A11.91,11.91,0,1,0,262,265.38c0-.2,0-.4,0-.59v-5.74a75.31,75.31,0,0,1,8.84,4.23c3.67,2,7.28,4.35,10.81,6.64l.16.1c1.63,1.06,3.25,2.11,4.9,3.14a36.08,36.08,0,0,0,13.27,5.46,43.16,43.16,0,0,0,6.79.49c.24,0,.92.07,1.9.07,3.09,0,8.92-.51,13.12-3.92a1.78,1.78,0,0,0,.25-2.5A1.82,1.82,0,0,0,319.49,272.51ZM262,199.58a.45.45,0,0,0,0-.23c0-.21,0-.41,0-.63a8.37,8.37,0,1,1,8.71,8.35H262Zm-11.9,74.17a8.34,8.34,0,0,1-4.38-15.46.53.53,0,0,0,.53,0,11.73,11.73,0,0,1,7.15-1.43,28.52,28.52,0,0,1,5,1v6.6a.75.75,0,0,0,0,.2l0,.42a.45.45,0,0,0,0,.11v0s0,.11,0,.16A8.39,8.39,0,0,1,250.05,273.75Z" fill="#4d4d4f"/><path d="M309.67,218.56a24.74,24.74,0,0,0-17-42.68h-.36c-.06,0-.09.06-.15.08a1.9,1.9,0,0,0-1.65,1.76,2,2,0,0,0,2.14,1.85,1,1,0,0,0,.17,0,21.07,21.07,0,0,1,10.35,39.35.67.67,0,0,0-.35.07c-1.4,0-2.8,0-4.2,0-4.26.07-8.76.27-12.86,1.84-1.14.44-3.87,1.69-4.48,3.91a3.41,3.41,0,0,0,.69,3.12c1.16,1.47,3,2.21,5.47,2.21a16.29,16.29,0,0,0,4-.55c4.05-1.07,7.65-3.41,10.94-5.78.64-.23,1.2-.41,1.73-.55a25.72,25.72,0,0,1,7-1,26,26,0,0,1,23.87,36.43.55.55,0,0,0-.05.17c-.46,1-.91,1.82-1.19,2.3a1.8,1.8,0,0,0-.19,1.36,1.82,1.82,0,0,0,1.75,1.34h.16a1.86,1.86,0,0,0,1.4-.89c.07-.12.71-1.21,1.41-2.7h0l0,0a20.08,20.08,0,0,0,1.63-4.71.13.13,0,0,1,0-.06,29.65,29.65,0,0,0-30.22-36.81ZM290.48,226a12.52,12.52,0,0,1-3.09.45,3.47,3.47,0,0,1-2.66-.86s0,0,0-.05A5.23,5.23,0,0,1,287,224.1c3.3-1.27,7.11-1.51,10.8-1.59A25.69,25.69,0,0,1,290.48,226Z" fill="#4d4d4f"/></svg>