<?xml version="1.0" encoding="utf-8"?>
<!-- Generator: Adobe Illustrator 21.1.0, SVG Export Plug-In . SVG Version: 6.00 Build 0)  -->
<svg version="1.1" id="Lager_1" xmlns="http://www.w3.org/2000/svg" xmlns:xlink="http://www.w3.org/1999/xlink" x="0px" y="0px"
	 viewBox="0 0 860 860" style="enable-background:new 0 0 860 860;" xml:space="preserve">
<style type="text/css">
	.st0{fill:#162836;}
</style>
<path class="st0" d="M430.2,833.3c-222.3,0-403.1-180.8-403.1-403.1S207.9,27.1,430.2,27.1s403.1,180.8,403.1,403.1
	S652.5,833.3,430.2,833.3z M430.2,54C222.7,54,54,222.7,54,430.2c0,207.5,168.8,376.2,376.2,376.2c207.5,0,376.2-168.8,376.2-376.2
	C806.5,222.7,637.7,54,430.2,54z"/>
<path class="st0" d="M631.8,524.3c-3.4,0-6.9-1.3-9.5-3.9L430.2,328.3L238.1,520.3c-5.2,5.2-13.8,5.2-19,0s-5.2-13.8,0-19
	l201.6-201.6c5.2-5.2,13.8-5.2,19,0l201.6,201.6c5.2,5.2,5.2,13.8,0,19C638.6,523,635.2,524.3,631.8,524.3z"/>
</svg>
